<svg width="182" height="55" viewBox="0 0 182 55" fill="none" xmlns="http://www.w3.org/2000/svg">
<path d="M158.293 49.891C158.336 44.7583 153.357 40.6462 148.28 41.3995C146.641 41.6425 145.336 42.1474 144.279 42.9156C144.685 41.0553 144.701 38.9951 144.222 36.765C142.572 29.074 133.651 26.4631 129.53 28.665C125.384 30.879 130.935 36.765 133.745 29.6316C150.343 31.7389 140.866 56.6315 120.32 46.7009C120.215 46.6496 120.112 46.6091 120.007 46.5592C129.188 48.5788 135.078 46.6294 136.53 39.6688C137.201 36.4464 132.667 34.2593 131.572 38.9465C129.958 45.8666 122.589 46.0449 117.091 45.3361C104.852 40.8865 97.2499 46.7199 94.2286 49.8924H90.7767C90.9576 48.9028 91.1493 47.9443 91.3559 47.0276C92.3387 45.2227 94.1301 43.874 97.655 43.4285C100.393 43.0816 100.912 39.9698 97.528 39.9577C95.8189 39.9523 93.8911 40.8042 92.4682 42.8224C96.5439 29.4952 103.613 25.7678 109.269 25.9906C116.024 26.2579 120.783 31.6161 117.322 37.1227C117.322 35.5567 115.672 34.2891 113.638 34.2891C111.603 34.2891 109.953 35.5581 109.953 37.1227C109.953 38.6873 111.603 39.9577 113.638 39.9577C113.898 39.9577 114.153 39.9348 114.399 39.8956C125.379 39.0019 123.575 19.7131 107.56 21.1333C92.5978 22.4603 90.5971 42.6361 90.3623 49.8924H90.3028C90.0679 42.6361 88.0686 22.4603 73.1052 21.1333C57.0901 19.7131 55.2865 39.0033 66.2661 39.8956C66.5118 39.9348 66.7656 39.9577 67.0275 39.9577C69.062 39.9577 70.7117 38.6887 70.7117 37.1227C70.7117 35.5567 69.062 34.2891 67.0275 34.2891C64.993 34.2891 63.3434 35.5581 63.3434 37.1227C59.882 31.6174 64.6407 26.2579 71.3961 25.9906C77.0526 25.7678 84.1225 29.4952 88.1968 42.8224C86.7739 40.8028 84.8461 39.9509 83.137 39.9577C79.7526 39.9685 80.2723 43.0816 83.0101 43.4285C86.535 43.874 88.3264 45.2227 89.3092 47.0276C89.5158 47.9429 89.7075 48.9028 89.8884 49.8924H86.4364C83.4151 46.7212 75.8133 40.8865 63.5742 45.3361C58.0756 46.0462 50.7074 45.868 49.0928 38.9465C47.9993 34.2593 43.4646 36.4464 44.1355 39.6688C45.5868 46.6294 51.4768 48.5801 60.6582 46.5592C60.5529 46.6091 60.4517 46.6496 60.345 46.7009C39.798 56.6315 30.3224 31.7403 46.9206 29.6316C49.7313 36.765 55.2811 30.879 51.1353 28.665C47.0137 26.4631 38.0929 29.074 36.4432 36.765C35.9653 38.9951 35.9815 41.0553 36.3866 42.9156C35.3295 42.1474 34.024 41.6425 32.3851 41.3995C27.3078 40.6448 22.329 44.7583 22.3722 49.891H0V51.2964H22.5018C22.5045 51.3126 22.5045 51.3287 22.5085 51.3449C23.2038 54.9373 27.3847 55.4989 28.9939 53.8047C29.4556 53.3187 29.6433 52.3129 29.4664 51.2964H42.9489C47.493 53.6885 53.7529 53.9532 60.0385 51.2964H87.4827C87.6339 51.4327 87.7838 51.5542 87.9363 51.696C87.9363 51.696 87.8351 51.5461 87.6461 51.2964H90.126C90.1908 51.6906 90.2624 52.0686 90.3231 52.4749C90.3231 52.4749 90.3379 52.0429 90.3325 51.2964H90.3366C90.3326 52.0429 90.3461 52.4749 90.3461 52.4749C90.4068 52.0686 90.4784 51.6919 90.5432 51.2964H93.0231C92.8341 51.5461 92.7328 51.696 92.7328 51.696C92.8854 51.5542 93.0339 51.4327 93.1864 51.2964H120.631C126.918 53.9532 133.178 53.6885 137.72 51.2964H151.203C151.026 52.3129 151.214 53.3173 151.675 53.8047C153.284 55.4989 157.464 54.9373 158.161 51.3449C158.163 51.3287 158.163 51.3126 158.167 51.2964H181.259V49.891H158.293ZM28.9508 49.891C28.4445 49.0594 27.5926 48.4195 26.3101 48.3628C28.8076 42.6752 34.8408 44.171 38.7247 47.8565C39.1054 48.3344 39.5253 48.78 39.9748 49.1998C39.9789 49.2052 39.9843 49.2093 39.9883 49.2147C39.9883 49.2133 39.9883 49.2133 39.987 49.2119C40.2421 49.4495 40.5121 49.6737 40.7889 49.891H28.9508ZM63.2421 49.891C74.0489 45.2511 79.6648 45.135 85.8033 49.891H63.2421ZM117.428 49.891H94.8672C101.007 45.135 106.622 45.2524 117.428 49.891ZM139.882 49.891C140.157 49.6737 140.427 49.4495 140.684 49.2119C140.684 49.2133 140.684 49.2133 140.682 49.2147C140.686 49.2093 140.692 49.2052 140.696 49.1998C141.145 48.78 141.565 48.3344 141.946 47.8565C145.83 44.1697 151.863 42.6752 154.36 48.3628C153.078 48.4195 152.226 49.0594 151.72 49.891H139.882Z" fill="#AF8D57"/>
<path d="M72.6787 16.0228C85.0528 16.7423 88.957 29.5093 90.3353 37.3082C89.8372 17.6333 80.213 8.76111 71.0843 8.82456C66.1042 8.85966 64.7231 15.5611 72.6787 16.0228Z" fill="#AF8D57"/>
<path d="M90.3359 37.3082C91.7143 29.5106 95.6185 16.7437 107.993 16.0228C115.948 15.5597 114.567 8.85967 109.587 8.82457C100.458 8.75977 90.8341 17.6333 90.3359 37.3082Z" fill="#AF8D57"/>
<path d="M90.331 24.731C90.331 24.7202 90.3324 24.7121 90.3324 24.7013C90.3324 24.7121 90.3337 24.7202 90.3337 24.731C90.3337 24.7107 90.3337 24.6918 90.3337 24.6729C90.7563 13.0805 99.6001 11.7494 97.9437 3.61969C96.9717 -1.15257 90.2905 -1.43066 90.3324 4.13404C90.3742 -1.42931 83.6931 -1.15257 82.7211 3.61969C81.0646 11.7507 89.9085 13.0805 90.331 24.6729C90.331 24.6932 90.331 24.7121 90.331 24.731ZM86.3337 8.65789C84.9621 6.07129 88.5369 8.53234 90.3337 8.53234C92.1306 8.53234 95.7054 6.07129 94.3338 8.65789C90.6091 15.6792 90.3513 19.2851 90.3337 23.7239C90.3148 19.2851 90.057 15.6806 86.3337 8.65789Z" fill="#AF8D57"/>
</svg>
