<svg width="72" height="72" viewBox="0 0 72 72" fill="none" xmlns="http://www.w3.org/2000/svg">
<path d="M10.1463 23.4973H5.60059V32.3047H10.1463V23.4973Z" stroke="#AF8D57" stroke-miterlimit="10" stroke-linecap="round" stroke-linejoin="round"/>
<path d="M10.1463 36.8528H5.60059V45.6602H10.1463V36.8528Z" stroke="#AF8D57" stroke-miterlimit="10" stroke-linecap="round" stroke-linejoin="round"/>
<path d="M10.1463 57.5911H5.60059V66.3984H10.1463V57.5911Z" stroke="#AF8D57" stroke-miterlimit="10" stroke-linecap="round" stroke-linejoin="round"/>
<mask id="mask0_1996_9995" style="mask-type:luminance" maskUnits="userSpaceOnUse" x="0" y="0" width="72" height="72">
<path d="M0 0H72V72H0V0Z" fill="white"/>
</mask>
<g mask="url(#mask0_1996_9995)">
<path d="M57.3074 54.7509V70.9453H14.6924V54.7509" stroke="#AF8D57" stroke-miterlimit="10" stroke-linecap="round" stroke-linejoin="round"/>
</g>
<path d="M57.3076 5.60219V50.207" stroke="#AF8D57" stroke-miterlimit="10" stroke-linecap="round" stroke-linejoin="round"/>
<path d="M14.6924 50.207V5.60219" stroke="#AF8D57" stroke-miterlimit="10" stroke-linecap="round" stroke-linejoin="round"/>
<mask id="mask1_1996_9995" style="mask-type:luminance" maskUnits="userSpaceOnUse" x="0" y="0" width="72" height="72">
<path d="M0 0H72V72H0V0Z" fill="white"/>
</mask>
<g mask="url(#mask1_1996_9995)">
<path d="M70.9454 26.2344V70.9453H57.3081" stroke="#AF8D57" stroke-miterlimit="10" stroke-linecap="round" stroke-linejoin="round"/>
<path d="M57.3081 15.5443H70.9454V21.3047" stroke="#AF8D57" stroke-miterlimit="10" stroke-linecap="round" stroke-linejoin="round"/>
<path d="M1.05469 26.2344V70.9453H14.6919" stroke="#AF8D57" stroke-miterlimit="10" stroke-linecap="round" stroke-linejoin="round"/>
<path d="M14.6919 15.5443H1.05469V21.3047" stroke="#AF8D57" stroke-miterlimit="10" stroke-linecap="round" stroke-linejoin="round"/>
</g>
<path d="M19.2378 10.1458H23.7835V18.9531H19.2378V10.1458Z" stroke="#AF8D57" stroke-miterlimit="10" stroke-linecap="round" stroke-linejoin="round"/>
<path d="M28.8975 10.1458H33.4432V18.9531H28.8975V10.1458Z" stroke="#AF8D57" stroke-miterlimit="10" stroke-linecap="round" stroke-linejoin="round"/>
<path d="M38.5571 10.1458H43.1028V18.9531H38.5571V10.1458Z" stroke="#AF8D57" stroke-miterlimit="10" stroke-linecap="round" stroke-linejoin="round"/>
<path d="M48.2168 10.1458H52.7625V18.9531H48.2168V10.1458Z" stroke="#AF8D57" stroke-miterlimit="10" stroke-linecap="round" stroke-linejoin="round"/>
<path d="M19.2378 23.4973H23.7835V32.3047H19.2378V23.4973Z" stroke="#AF8D57" stroke-miterlimit="10" stroke-linecap="round" stroke-linejoin="round"/>
<path d="M28.8975 23.4973H33.4432V32.3047H28.8975V23.4973Z" stroke="#AF8D57" stroke-miterlimit="10" stroke-linecap="round" stroke-linejoin="round"/>
<path d="M38.5571 23.4973H43.1028V32.3047H38.5571V23.4973Z" stroke="#AF8D57" stroke-miterlimit="10" stroke-linecap="round" stroke-linejoin="round"/>
<path d="M48.2168 23.4973H52.7625V32.3047H48.2168V23.4973Z" stroke="#AF8D57" stroke-miterlimit="10" stroke-linecap="round" stroke-linejoin="round"/>
<path d="M19.2378 36.8528H23.7835V45.6602H19.2378V36.8528Z" stroke="#AF8D57" stroke-miterlimit="10" stroke-linecap="round" stroke-linejoin="round"/>
<path d="M28.8975 36.8528H33.4432V45.6602H28.8975V36.8528Z" stroke="#AF8D57" stroke-miterlimit="10" stroke-linecap="round" stroke-linejoin="round"/>
<path d="M38.5571 36.8528H43.1028V45.6602H38.5571V36.8528Z" stroke="#AF8D57" stroke-miterlimit="10" stroke-linecap="round" stroke-linejoin="round"/>
<path d="M48.2168 36.8528H52.7625V45.6602H48.2168V36.8528Z" stroke="#AF8D57" stroke-miterlimit="10" stroke-linecap="round" stroke-linejoin="round"/>
<path d="M19.2378 59.2958H25.7722V66.3984H19.2378V59.2958Z" stroke="#AF8D57" stroke-miterlimit="10" stroke-linecap="round" stroke-linejoin="round"/>
<path d="M52.7626 59.2958H46.228V66.3984H52.7626V59.2958Z" stroke="#AF8D57" stroke-miterlimit="10" stroke-linecap="round" stroke-linejoin="round"/>
<mask id="mask2_1996_9995" style="mask-type:luminance" maskUnits="userSpaceOnUse" x="0" y="0" width="72" height="72">
<path d="M0 0H72V72H0V0Z" fill="white"/>
</mask>
<g mask="url(#mask2_1996_9995)">
<path d="M30.3179 59.2969H36.0001V70.9453H30.3179V59.2969Z" stroke="#AF8D57" stroke-miterlimit="10" stroke-linecap="round" stroke-linejoin="round"/>
<path d="M41.6821 59.2969H36V70.9453H41.6821V59.2969Z" stroke="#AF8D57" stroke-miterlimit="10" stroke-linecap="round" stroke-linejoin="round"/>
</g>
<path d="M13.2715 50.2043H58.7288V54.75H13.2715V50.2043Z" stroke="#AF8D57" stroke-miterlimit="10" stroke-linecap="round" stroke-linejoin="round"/>
<mask id="mask3_1996_9995" style="mask-type:luminance" maskUnits="userSpaceOnUse" x="0" y="0" width="72" height="72">
<path d="M0 0H72V72H0V0Z" fill="white"/>
</mask>
<g mask="url(#mask3_1996_9995)">
<path d="M48.2518 5.60156H13.2715V1.05586H58.7288V5.60156H53.1816" stroke="#AF8D57" stroke-miterlimit="10" stroke-linecap="round" stroke-linejoin="round"/>
</g>
<path d="M61.854 23.4973H66.3997V32.3047H61.854V23.4973Z" stroke="#AF8D57" stroke-miterlimit="10" stroke-linecap="round" stroke-linejoin="round"/>
<path d="M61.854 36.8528H66.3997V45.6602H61.854V36.8528Z" stroke="#AF8D57" stroke-miterlimit="10" stroke-linecap="round" stroke-linejoin="round"/>
<path d="M61.854 57.5911H66.3997V66.3984H61.854V57.5911Z" stroke="#AF8D57" stroke-miterlimit="10" stroke-linecap="round" stroke-linejoin="round"/>
</svg>
